<svg width="14" height="14" viewBox="0 0 14 14" fill="none" xmlns="http://www.w3.org/2000/svg">
<path d="M6.99996 0.333344C10.6759 0.333344 13.6666 3.32411 13.6666 7.00001C13.6666 8.09178 13.3791 9.11163 12.9127 10.0215L13.6354 12.6094C13.8037 13.2105 13.2093 13.8042 12.608 13.6361L10.0188 12.9134C9.10961 13.3791 8.09097 13.6667 6.99996 13.6667C3.32406 13.6667 0.333294 10.6759 0.333294 7.00001C0.333294 3.32411 3.32406 0.333344 6.99996 0.333344ZM6.99996 1.33334C3.86453 1.33334 1.33329 3.86458 1.33329 7.00001C1.33329 10.1354 3.86453 12.6667 6.99996 12.6667C8.00095 12.6667 8.93587 12.4061 9.75191 11.9512C9.86713 11.8869 10.0031 11.8707 10.1302 11.9063L12.5924 12.5938L11.9049 10.1328C11.8694 10.0057 11.8855 9.86979 11.9498 9.75457C12.4054 8.93783 12.6666 8.00152 12.6666 7.00001C12.6666 3.86458 10.1354 1.33334 6.99996 1.33334Z" fill="#5E5E5E"/>
</svg>
