<svg width="66" height="66" viewBox="0 0 66 66" fill="none" xmlns="http://www.w3.org/2000/svg">
<circle cx="33" cy="33" r="32" fill="#F4F4F4"/>
<path d="M33 1C15.336 1 1 15.336 1 33C1 50.664 15.336 65 33 65C50.664 65 65 50.664 65 33C65 15.336 50.664 1 33 1ZM33 13.8C39.176 13.8 44.2 18.824 44.2 25C44.2 31.176 39.176 36.2 33 36.2C26.824 36.2 21.8 31.176 21.8 25C21.8 18.824 26.824 13.8 33 13.8ZM33 58.6C26.504 58.6 18.824 55.976 13.352 49.384C18.9571 44.9863 25.8756 42.5962 33 42.5962C40.1244 42.5962 47.0429 44.9863 52.648 49.384C47.176 55.976 39.496 58.6 33 58.6Z" fill="#C7C7C7"/>
<rect x="0.5" y="0.5" width="65" height="65" rx="32.5" stroke="#BCBCBC"/>
</svg>
