<svg width="24" height="24" viewBox="0 0 24 24" fill="none" xmlns="http://www.w3.org/2000/svg">
<path d="M11.075 23.5202C4.264 13.6421 3 12.6291 3 9.00008C3 4.02904 7.029 0 12 0C16.971 0 21 4.02904 21 9.00008C21 12.6291 19.736 13.6401 12.925 23.5162C12.8216 23.6652 12.6837 23.787 12.5231 23.8712C12.3625 23.9554 12.1839 23.9996 12.0025 24C11.8212 24.0004 11.6424 23.957 11.4815 23.8734C11.3205 23.7899 11.1821 23.6687 11.078 23.5202L11.076 23.5162L11.075 23.5202ZM12 12.7501C12.9946 12.7501 13.9484 12.355 14.6517 11.6518C15.3549 10.9485 15.75 9.99465 15.75 9.00008C15.75 8.00551 15.3549 7.05168 14.6517 6.34841C13.9484 5.64514 12.9946 5.25005 12 5.25005C11.0054 5.25005 10.0516 5.64514 9.34835 6.34841C8.64509 7.05168 8.25 8.00551 8.25 9.00008C8.25 9.99465 8.64509 10.9485 9.34835 11.6518C10.0516 12.355 11.0054 12.7501 12 12.7501Z" fill="#FF7E36"/>
</svg>
