<svg width="16" height="16" viewBox="0 0 16 16" fill="none" xmlns="http://www.w3.org/2000/svg">
<path d="M8.00004 1.33334C4.32406 1.33334 1.33337 4.32403 1.33337 8.00001C1.33337 11.676 4.32406 14.6667 8.00004 14.6667C11.676 14.6667 14.6667 11.676 14.6667 8.00001C14.6667 4.32403 11.676 1.33334 8.00004 1.33334ZM8.00004 2.33334C11.1356 2.33334 13.6667 4.86447 13.6667 8.00001C13.6667 11.1355 11.1356 13.6667 8.00004 13.6667C4.8645 13.6667 2.33337 11.1355 2.33337 8.00001C2.33337 4.86447 4.8645 2.33334 8.00004 2.33334ZM10.4903 5.99545C10.3604 5.99924 10.2371 6.05341 10.1465 6.14649L7.16671 9.12631L5.85356 7.81316C5.80748 7.76518 5.7523 7.72686 5.69124 7.70047C5.63017 7.67408 5.56446 7.66014 5.49794 7.65946C5.43142 7.65879 5.36543 7.67139 5.30384 7.69654C5.24225 7.72168 5.1863 7.75886 5.13926 7.8059C5.09222 7.85294 5.05504 7.90889 5.0299 7.97048C5.00475 8.03207 4.99215 8.09805 4.99283 8.16457C4.9935 8.23109 5.00745 8.29681 5.03384 8.35787C5.06023 8.41893 5.09854 8.47412 5.14652 8.52019L6.81319 10.1869C6.90696 10.2806 7.03412 10.3332 7.16671 10.3332C7.29929 10.3332 7.42645 10.2806 7.52022 10.1869L10.8536 6.85353C10.9257 6.78327 10.9749 6.69288 10.9948 6.59418C11.0148 6.49548 11.0044 6.39306 10.9652 6.30034C10.9259 6.20762 10.8596 6.12891 10.7748 6.07451C10.6901 6.02011 10.5909 5.99255 10.4903 5.99545Z" fill="#5E5E5E"/>
</svg>
